<mxfile host="app.diagrams.net" agent="Mozilla/5.0 (Windows NT 10.0; Win64; x64) AppleWebKit/537.36 (KHTML, like Gecko) Chrome/137.0.0.0 Safari/537.36" version="27.1.4">
  <diagram name="Page-1" id="FYOwgNXaRJl_69Y85xfS">
    <mxGraphModel dx="1554" dy="1923" grid="1" gridSize="10" guides="1" tooltips="1" connect="1" arrows="1" fold="1" page="1" pageScale="1" pageWidth="850" pageHeight="1100" math="0" shadow="0">
      <root>
        <mxCell id="0" />
        <mxCell id="1" parent="0" />
        <mxCell id="5xi-BNaDQISyRTZjNF9I-16" value="" style="edgeStyle=orthogonalEdgeStyle;rounded=0;orthogonalLoop=1;jettySize=auto;html=1;" edge="1" parent="1" source="5xi-BNaDQISyRTZjNF9I-1" target="5xi-BNaDQISyRTZjNF9I-2">
          <mxGeometry relative="1" as="geometry" />
        </mxCell>
        <mxCell id="5xi-BNaDQISyRTZjNF9I-1" value="MyApp" style="rounded=1;whiteSpace=wrap;html=1;" vertex="1" parent="1">
          <mxGeometry x="365" y="-1070" width="120" height="60" as="geometry" />
        </mxCell>
        <mxCell id="5xi-BNaDQISyRTZjNF9I-17" value="" style="edgeStyle=orthogonalEdgeStyle;rounded=0;orthogonalLoop=1;jettySize=auto;html=1;" edge="1" parent="1" source="5xi-BNaDQISyRTZjNF9I-2" target="5xi-BNaDQISyRTZjNF9I-3">
          <mxGeometry relative="1" as="geometry" />
        </mxCell>
        <mxCell id="5xi-BNaDQISyRTZjNF9I-2" value="MaterialApp" style="rounded=1;whiteSpace=wrap;html=1;" vertex="1" parent="1">
          <mxGeometry x="365" y="-980" width="120" height="60" as="geometry" />
        </mxCell>
        <mxCell id="5xi-BNaDQISyRTZjNF9I-18" value="" style="edgeStyle=orthogonalEdgeStyle;rounded=0;orthogonalLoop=1;jettySize=auto;html=1;" edge="1" parent="1" source="5xi-BNaDQISyRTZjNF9I-3" target="5xi-BNaDQISyRTZjNF9I-4">
          <mxGeometry relative="1" as="geometry" />
        </mxCell>
        <mxCell id="5xi-BNaDQISyRTZjNF9I-3" value="Home" style="rounded=1;whiteSpace=wrap;html=1;" vertex="1" parent="1">
          <mxGeometry x="365" y="-890" width="120" height="60" as="geometry" />
        </mxCell>
        <mxCell id="5xi-BNaDQISyRTZjNF9I-19" value="" style="edgeStyle=orthogonalEdgeStyle;rounded=0;orthogonalLoop=1;jettySize=auto;html=1;" edge="1" parent="1" source="5xi-BNaDQISyRTZjNF9I-4" target="5xi-BNaDQISyRTZjNF9I-6">
          <mxGeometry relative="1" as="geometry" />
        </mxCell>
        <mxCell id="5xi-BNaDQISyRTZjNF9I-4" value="GestureDetector" style="rounded=1;whiteSpace=wrap;html=1;" vertex="1" parent="1">
          <mxGeometry x="365" y="-800" width="120" height="60" as="geometry" />
        </mxCell>
        <mxCell id="5xi-BNaDQISyRTZjNF9I-20" value="" style="edgeStyle=orthogonalEdgeStyle;rounded=0;orthogonalLoop=1;jettySize=auto;html=1;" edge="1" parent="1" source="5xi-BNaDQISyRTZjNF9I-6" target="5xi-BNaDQISyRTZjNF9I-9">
          <mxGeometry relative="1" as="geometry" />
        </mxCell>
        <mxCell id="5xi-BNaDQISyRTZjNF9I-37" style="edgeStyle=orthogonalEdgeStyle;rounded=0;orthogonalLoop=1;jettySize=auto;html=1;exitX=0.5;exitY=1;exitDx=0;exitDy=0;entryX=0.5;entryY=0;entryDx=0;entryDy=0;" edge="1" parent="1" source="5xi-BNaDQISyRTZjNF9I-6" target="5xi-BNaDQISyRTZjNF9I-7">
          <mxGeometry relative="1" as="geometry" />
        </mxCell>
        <mxCell id="5xi-BNaDQISyRTZjNF9I-6" value="Scaffold" style="rounded=1;whiteSpace=wrap;html=1;" vertex="1" parent="1">
          <mxGeometry x="365" y="-710" width="120" height="60" as="geometry" />
        </mxCell>
        <mxCell id="5xi-BNaDQISyRTZjNF9I-23" value="" style="edgeStyle=orthogonalEdgeStyle;rounded=0;orthogonalLoop=1;jettySize=auto;html=1;" edge="1" parent="1" target="5xi-BNaDQISyRTZjNF9I-8">
          <mxGeometry relative="1" as="geometry">
            <mxPoint x="327" y="-550" as="sourcePoint" />
          </mxGeometry>
        </mxCell>
        <mxCell id="5xi-BNaDQISyRTZjNF9I-7" value="FloatingActionButton" style="rounded=1;whiteSpace=wrap;html=1;" vertex="1" parent="1">
          <mxGeometry x="266" y="-610" width="120" height="60" as="geometry" />
        </mxCell>
        <mxCell id="5xi-BNaDQISyRTZjNF9I-8" value="Icon" style="rounded=1;whiteSpace=wrap;html=1;" vertex="1" parent="1">
          <mxGeometry x="267" y="-520" width="120" height="60" as="geometry" />
        </mxCell>
        <mxCell id="5xi-BNaDQISyRTZjNF9I-21" value="" style="edgeStyle=orthogonalEdgeStyle;rounded=0;orthogonalLoop=1;jettySize=auto;html=1;" edge="1" parent="1" source="5xi-BNaDQISyRTZjNF9I-9" target="5xi-BNaDQISyRTZjNF9I-11">
          <mxGeometry relative="1" as="geometry" />
        </mxCell>
        <mxCell id="5xi-BNaDQISyRTZjNF9I-9" value="SafeArea" style="rounded=1;whiteSpace=wrap;html=1;" vertex="1" parent="1">
          <mxGeometry x="460" y="-610" width="120" height="60" as="geometry" />
        </mxCell>
        <mxCell id="5xi-BNaDQISyRTZjNF9I-24" value="" style="edgeStyle=orthogonalEdgeStyle;rounded=0;orthogonalLoop=1;jettySize=auto;html=1;" edge="1" parent="1" source="5xi-BNaDQISyRTZjNF9I-11" target="5xi-BNaDQISyRTZjNF9I-12">
          <mxGeometry relative="1" as="geometry" />
        </mxCell>
        <mxCell id="5xi-BNaDQISyRTZjNF9I-26" style="edgeStyle=orthogonalEdgeStyle;rounded=0;orthogonalLoop=1;jettySize=auto;html=1;exitX=0.5;exitY=1;exitDx=0;exitDy=0;entryX=0.5;entryY=0;entryDx=0;entryDy=0;" edge="1" parent="1" source="5xi-BNaDQISyRTZjNF9I-11" target="5xi-BNaDQISyRTZjNF9I-14">
          <mxGeometry relative="1" as="geometry">
            <Array as="points">
              <mxPoint x="520" y="-450" />
              <mxPoint x="665" y="-450" />
            </Array>
          </mxGeometry>
        </mxCell>
        <mxCell id="5xi-BNaDQISyRTZjNF9I-27" style="edgeStyle=orthogonalEdgeStyle;rounded=0;orthogonalLoop=1;jettySize=auto;html=1;exitX=0.5;exitY=1;exitDx=0;exitDy=0;entryX=0.5;entryY=0;entryDx=0;entryDy=0;" edge="1" parent="1" source="5xi-BNaDQISyRTZjNF9I-11" target="5xi-BNaDQISyRTZjNF9I-13">
          <mxGeometry relative="1" as="geometry">
            <Array as="points">
              <mxPoint x="520" y="-450" />
              <mxPoint x="815" y="-450" />
            </Array>
          </mxGeometry>
        </mxCell>
        <mxCell id="5xi-BNaDQISyRTZjNF9I-11" value="Column" style="rounded=1;whiteSpace=wrap;html=1;" vertex="1" parent="1">
          <mxGeometry x="460" y="-520" width="120" height="60" as="geometry" />
        </mxCell>
        <mxCell id="5xi-BNaDQISyRTZjNF9I-28" value="" style="edgeStyle=orthogonalEdgeStyle;rounded=0;orthogonalLoop=1;jettySize=auto;html=1;" edge="1" parent="1" source="5xi-BNaDQISyRTZjNF9I-12" target="5xi-BNaDQISyRTZjNF9I-15">
          <mxGeometry relative="1" as="geometry" />
        </mxCell>
        <mxCell id="5xi-BNaDQISyRTZjNF9I-12" value="TextField" style="rounded=1;whiteSpace=wrap;html=1;" vertex="1" parent="1">
          <mxGeometry x="460" y="-430" width="120" height="60" as="geometry" />
        </mxCell>
        <mxCell id="5xi-BNaDQISyRTZjNF9I-30" value="" style="edgeStyle=orthogonalEdgeStyle;rounded=0;orthogonalLoop=1;jettySize=auto;html=1;" edge="1" parent="1" source="5xi-BNaDQISyRTZjNF9I-13" target="5xi-BNaDQISyRTZjNF9I-29">
          <mxGeometry relative="1" as="geometry" />
        </mxCell>
        <mxCell id="5xi-BNaDQISyRTZjNF9I-13" value="Expanded" style="rounded=1;whiteSpace=wrap;html=1;" vertex="1" parent="1">
          <mxGeometry x="755" y="-430" width="120" height="60" as="geometry" />
        </mxCell>
        <mxCell id="5xi-BNaDQISyRTZjNF9I-14" value="SizedBox" style="rounded=1;whiteSpace=wrap;html=1;" vertex="1" parent="1">
          <mxGeometry x="605" y="-430" width="120" height="60" as="geometry" />
        </mxCell>
        <mxCell id="5xi-BNaDQISyRTZjNF9I-15" value="Icon" style="rounded=1;whiteSpace=wrap;html=1;" vertex="1" parent="1">
          <mxGeometry x="460" y="-340" width="120" height="60" as="geometry" />
        </mxCell>
        <mxCell id="5xi-BNaDQISyRTZjNF9I-38" value="" style="edgeStyle=orthogonalEdgeStyle;rounded=0;orthogonalLoop=1;jettySize=auto;html=1;" edge="1" parent="1" source="5xi-BNaDQISyRTZjNF9I-29" target="5xi-BNaDQISyRTZjNF9I-31">
          <mxGeometry relative="1" as="geometry" />
        </mxCell>
        <mxCell id="5xi-BNaDQISyRTZjNF9I-58" style="edgeStyle=orthogonalEdgeStyle;rounded=0;orthogonalLoop=1;jettySize=auto;html=1;exitX=0.5;exitY=1;exitDx=0;exitDy=0;entryX=0.5;entryY=0;entryDx=0;entryDy=0;" edge="1" parent="1" source="5xi-BNaDQISyRTZjNF9I-29" target="5xi-BNaDQISyRTZjNF9I-57">
          <mxGeometry relative="1" as="geometry">
            <Array as="points">
              <mxPoint x="815" y="-270" />
              <mxPoint x="970" y="-270" />
            </Array>
          </mxGeometry>
        </mxCell>
        <mxCell id="5xi-BNaDQISyRTZjNF9I-29" value="ListView&lt;div&gt;seperated&lt;/div&gt;" style="rounded=1;whiteSpace=wrap;html=1;" vertex="1" parent="1">
          <mxGeometry x="755" y="-340" width="120" height="60" as="geometry" />
        </mxCell>
        <mxCell id="5xi-BNaDQISyRTZjNF9I-39" value="" style="edgeStyle=orthogonalEdgeStyle;rounded=0;orthogonalLoop=1;jettySize=auto;html=1;" edge="1" parent="1" source="5xi-BNaDQISyRTZjNF9I-31" target="5xi-BNaDQISyRTZjNF9I-32">
          <mxGeometry relative="1" as="geometry" />
        </mxCell>
        <mxCell id="5xi-BNaDQISyRTZjNF9I-31" value="InkWell" style="rounded=1;whiteSpace=wrap;html=1;" vertex="1" parent="1">
          <mxGeometry x="755" y="-250" width="120" height="60" as="geometry" />
        </mxCell>
        <mxCell id="5xi-BNaDQISyRTZjNF9I-40" value="" style="edgeStyle=orthogonalEdgeStyle;rounded=0;orthogonalLoop=1;jettySize=auto;html=1;" edge="1" parent="1" source="5xi-BNaDQISyRTZjNF9I-32" target="5xi-BNaDQISyRTZjNF9I-33">
          <mxGeometry relative="1" as="geometry" />
        </mxCell>
        <mxCell id="5xi-BNaDQISyRTZjNF9I-32" value="Container" style="rounded=1;whiteSpace=wrap;html=1;" vertex="1" parent="1">
          <mxGeometry x="755" y="-160" width="120" height="60" as="geometry" />
        </mxCell>
        <mxCell id="5xi-BNaDQISyRTZjNF9I-41" style="edgeStyle=orthogonalEdgeStyle;rounded=0;orthogonalLoop=1;jettySize=auto;html=1;exitX=0.5;exitY=1;exitDx=0;exitDy=0;entryX=0.5;entryY=0;entryDx=0;entryDy=0;" edge="1" parent="1" source="5xi-BNaDQISyRTZjNF9I-33" target="5xi-BNaDQISyRTZjNF9I-35">
          <mxGeometry relative="1" as="geometry">
            <Array as="points">
              <mxPoint x="815" />
              <mxPoint x="920" />
            </Array>
          </mxGeometry>
        </mxCell>
        <mxCell id="5xi-BNaDQISyRTZjNF9I-42" style="edgeStyle=orthogonalEdgeStyle;rounded=0;orthogonalLoop=1;jettySize=auto;html=1;exitX=0.5;exitY=1;exitDx=0;exitDy=0;entryX=0.5;entryY=0;entryDx=0;entryDy=0;" edge="1" parent="1" source="5xi-BNaDQISyRTZjNF9I-33" target="5xi-BNaDQISyRTZjNF9I-34">
          <mxGeometry relative="1" as="geometry">
            <Array as="points">
              <mxPoint x="815" />
              <mxPoint x="710" />
            </Array>
          </mxGeometry>
        </mxCell>
        <mxCell id="5xi-BNaDQISyRTZjNF9I-33" value="Row" style="rounded=1;whiteSpace=wrap;html=1;" vertex="1" parent="1">
          <mxGeometry x="755" y="-70" width="120" height="60" as="geometry" />
        </mxCell>
        <mxCell id="5xi-BNaDQISyRTZjNF9I-44" value="" style="edgeStyle=orthogonalEdgeStyle;rounded=0;orthogonalLoop=1;jettySize=auto;html=1;" edge="1" parent="1" source="5xi-BNaDQISyRTZjNF9I-34" target="5xi-BNaDQISyRTZjNF9I-43">
          <mxGeometry relative="1" as="geometry" />
        </mxCell>
        <mxCell id="5xi-BNaDQISyRTZjNF9I-34" value="Expanded" style="rounded=1;whiteSpace=wrap;html=1;" vertex="1" parent="1">
          <mxGeometry x="650" y="20" width="120" height="60" as="geometry" />
        </mxCell>
        <mxCell id="5xi-BNaDQISyRTZjNF9I-55" value="" style="edgeStyle=orthogonalEdgeStyle;rounded=0;orthogonalLoop=1;jettySize=auto;html=1;" edge="1" parent="1" source="5xi-BNaDQISyRTZjNF9I-35" target="5xi-BNaDQISyRTZjNF9I-54">
          <mxGeometry relative="1" as="geometry" />
        </mxCell>
        <mxCell id="5xi-BNaDQISyRTZjNF9I-35" value="Expanded" style="rounded=1;whiteSpace=wrap;html=1;" vertex="1" parent="1">
          <mxGeometry x="860" y="20" width="120" height="60" as="geometry" />
        </mxCell>
        <mxCell id="5xi-BNaDQISyRTZjNF9I-46" value="" style="edgeStyle=orthogonalEdgeStyle;rounded=0;orthogonalLoop=1;jettySize=auto;html=1;" edge="1" parent="1" source="5xi-BNaDQISyRTZjNF9I-43" target="5xi-BNaDQISyRTZjNF9I-45">
          <mxGeometry relative="1" as="geometry" />
        </mxCell>
        <mxCell id="5xi-BNaDQISyRTZjNF9I-43" value="Padding" style="rounded=1;whiteSpace=wrap;html=1;" vertex="1" parent="1">
          <mxGeometry x="650" y="110" width="120" height="60" as="geometry" />
        </mxCell>
        <mxCell id="5xi-BNaDQISyRTZjNF9I-53" value="" style="edgeStyle=orthogonalEdgeStyle;rounded=0;orthogonalLoop=1;jettySize=auto;html=1;" edge="1" parent="1" source="5xi-BNaDQISyRTZjNF9I-45" target="5xi-BNaDQISyRTZjNF9I-50">
          <mxGeometry relative="1" as="geometry" />
        </mxCell>
        <mxCell id="5xi-BNaDQISyRTZjNF9I-60" style="edgeStyle=orthogonalEdgeStyle;rounded=0;orthogonalLoop=1;jettySize=auto;html=1;exitX=0.5;exitY=1;exitDx=0;exitDy=0;entryX=0.5;entryY=0;entryDx=0;entryDy=0;" edge="1" parent="1" source="5xi-BNaDQISyRTZjNF9I-45" target="5xi-BNaDQISyRTZjNF9I-47">
          <mxGeometry relative="1" as="geometry" />
        </mxCell>
        <mxCell id="5xi-BNaDQISyRTZjNF9I-61" style="edgeStyle=orthogonalEdgeStyle;rounded=0;orthogonalLoop=1;jettySize=auto;html=1;exitX=0.5;exitY=1;exitDx=0;exitDy=0;entryX=0.5;entryY=0;entryDx=0;entryDy=0;" edge="1" parent="1" source="5xi-BNaDQISyRTZjNF9I-45" target="5xi-BNaDQISyRTZjNF9I-52">
          <mxGeometry relative="1" as="geometry" />
        </mxCell>
        <mxCell id="5xi-BNaDQISyRTZjNF9I-63" style="edgeStyle=orthogonalEdgeStyle;rounded=0;orthogonalLoop=1;jettySize=auto;html=1;exitX=0.5;exitY=1;exitDx=0;exitDy=0;entryX=0.5;entryY=0;entryDx=0;entryDy=0;" edge="1" parent="1" source="5xi-BNaDQISyRTZjNF9I-45" target="5xi-BNaDQISyRTZjNF9I-48">
          <mxGeometry relative="1" as="geometry" />
        </mxCell>
        <mxCell id="5xi-BNaDQISyRTZjNF9I-64" style="edgeStyle=orthogonalEdgeStyle;rounded=0;orthogonalLoop=1;jettySize=auto;html=1;exitX=0.5;exitY=1;exitDx=0;exitDy=0;entryX=0.5;entryY=0;entryDx=0;entryDy=0;" edge="1" parent="1" source="5xi-BNaDQISyRTZjNF9I-45" target="5xi-BNaDQISyRTZjNF9I-51">
          <mxGeometry relative="1" as="geometry" />
        </mxCell>
        <mxCell id="5xi-BNaDQISyRTZjNF9I-45" value="Column" style="rounded=1;whiteSpace=wrap;html=1;" vertex="1" parent="1">
          <mxGeometry x="650" y="200" width="120" height="60" as="geometry" />
        </mxCell>
        <mxCell id="5xi-BNaDQISyRTZjNF9I-47" value="Text" style="rounded=1;whiteSpace=wrap;html=1;" vertex="1" parent="1">
          <mxGeometry x="90" y="300" width="120" height="60" as="geometry" />
        </mxCell>
        <mxCell id="5xi-BNaDQISyRTZjNF9I-48" value="Text" style="rounded=1;whiteSpace=wrap;html=1;" vertex="1" parent="1">
          <mxGeometry x="370" y="300" width="120" height="60" as="geometry" />
        </mxCell>
        <mxCell id="5xi-BNaDQISyRTZjNF9I-50" value="Text" style="rounded=1;whiteSpace=wrap;html=1;" vertex="1" parent="1">
          <mxGeometry x="650" y="300" width="120" height="60" as="geometry" />
        </mxCell>
        <mxCell id="5xi-BNaDQISyRTZjNF9I-51" value="SizedBox" style="rounded=1;whiteSpace=wrap;html=1;" vertex="1" parent="1">
          <mxGeometry x="510" y="300" width="120" height="60" as="geometry" />
        </mxCell>
        <mxCell id="5xi-BNaDQISyRTZjNF9I-52" value="SizedBox" style="rounded=1;whiteSpace=wrap;html=1;" vertex="1" parent="1">
          <mxGeometry x="230" y="300" width="120" height="60" as="geometry" />
        </mxCell>
        <mxCell id="5xi-BNaDQISyRTZjNF9I-59" value="" style="edgeStyle=orthogonalEdgeStyle;rounded=0;orthogonalLoop=1;jettySize=auto;html=1;" edge="1" parent="1" source="5xi-BNaDQISyRTZjNF9I-54" target="5xi-BNaDQISyRTZjNF9I-56">
          <mxGeometry relative="1" as="geometry" />
        </mxCell>
        <mxCell id="5xi-BNaDQISyRTZjNF9I-54" value="SizedBox" style="rounded=1;whiteSpace=wrap;html=1;" vertex="1" parent="1">
          <mxGeometry x="860" y="110" width="120" height="60" as="geometry" />
        </mxCell>
        <mxCell id="5xi-BNaDQISyRTZjNF9I-67" value="" style="edgeStyle=orthogonalEdgeStyle;rounded=0;orthogonalLoop=1;jettySize=auto;html=1;" edge="1" parent="1" source="5xi-BNaDQISyRTZjNF9I-56" target="5xi-BNaDQISyRTZjNF9I-65">
          <mxGeometry relative="1" as="geometry" />
        </mxCell>
        <mxCell id="5xi-BNaDQISyRTZjNF9I-71" style="edgeStyle=orthogonalEdgeStyle;rounded=0;orthogonalLoop=1;jettySize=auto;html=1;exitX=0.5;exitY=1;exitDx=0;exitDy=0;entryX=0.5;entryY=0;entryDx=0;entryDy=0;" edge="1" parent="1" source="5xi-BNaDQISyRTZjNF9I-56" target="5xi-BNaDQISyRTZjNF9I-70">
          <mxGeometry relative="1" as="geometry" />
        </mxCell>
        <mxCell id="5xi-BNaDQISyRTZjNF9I-56" value="Image&lt;div&gt;network&lt;/div&gt;" style="rounded=1;whiteSpace=wrap;html=1;" vertex="1" parent="1">
          <mxGeometry x="860" y="200" width="120" height="60" as="geometry" />
        </mxCell>
        <mxCell id="5xi-BNaDQISyRTZjNF9I-57" value="SizedBox" style="rounded=1;whiteSpace=wrap;html=1;" vertex="1" parent="1">
          <mxGeometry x="910" y="-250" width="120" height="60" as="geometry" />
        </mxCell>
        <mxCell id="5xi-BNaDQISyRTZjNF9I-69" value="" style="edgeStyle=orthogonalEdgeStyle;rounded=0;orthogonalLoop=1;jettySize=auto;html=1;" edge="1" parent="1" source="5xi-BNaDQISyRTZjNF9I-65" target="5xi-BNaDQISyRTZjNF9I-66">
          <mxGeometry relative="1" as="geometry" />
        </mxCell>
        <mxCell id="5xi-BNaDQISyRTZjNF9I-65" value="Center" style="rounded=1;whiteSpace=wrap;html=1;" vertex="1" parent="1">
          <mxGeometry x="860" y="300" width="120" height="60" as="geometry" />
        </mxCell>
        <mxCell id="5xi-BNaDQISyRTZjNF9I-66" value="CircularProgressIndicator" style="rounded=1;whiteSpace=wrap;html=1;" vertex="1" parent="1">
          <mxGeometry x="830" y="400" width="180" height="60" as="geometry" />
        </mxCell>
        <mxCell id="5xi-BNaDQISyRTZjNF9I-70" value="Icon" style="rounded=1;whiteSpace=wrap;html=1;" vertex="1" parent="1">
          <mxGeometry x="1010" y="300" width="120" height="60" as="geometry" />
        </mxCell>
      </root>
    </mxGraphModel>
  </diagram>
</mxfile>
